inDegrees=yes
name=ik_Xsens
DataType=double
version=3
OpenSimVersion=4.4-2022-07-23-0e9fedc
endheader
time	pelvis_tilt	pelvis_list	pelvis_rotation	pelvis_tx	pelvis_ty	pelvis_tz	hip_flexion_r	hip_adduction_r	hip_rotation_r	knee_angle_r	knee_angle_r_beta	ankle_angle_r	subtalar_angle_r	mtp_angle_r	hip_flexion_l	hip_adduction_l	hip_rotation_l	knee_angle_l	knee_angle_l_beta	ankle_angle_l	subtalar_angle_l	mtp_angle_l	lumbar_extension	lumbar_bending	lumbar_rotation	arm_flex_r	arm_add_r	arm_rot_r	elbow_flex_r	pro_sup_r	wrist_flex_r	wrist_dev_r	arm_flex_l	arm_add_l	arm_rot_l	elbow_flex_l	pro_sup_l	wrist_flex_l	wrist_dev_l
62.88333333333333	0	0	0	0	0.93	0	0	0	0	0	0	0	0	0	0	0	0	0	0	0	0	0	0	0	0	3.493392609475319	-0.1343374646118521	-0.8385598491128684	110.2028652174563	102.2522774900149	0	0	-3.470569232810366	-0.735807024266505	11.40525755138231	7.444913722546247	-3.354798951892615	0	0
62.9	0	0	0	0	0.93	0	0	0	0	7.110294724945842e-37	-5.877471754111438e-39	0	0	0	0	0	0	7.110294724945842e-37	-5.877471754111438e-39	0	0	0	0	0	0	3.363019301408046	0.07817296637395804	-0.4286475989307543	110.2357114081025	102.5746252005636	0	0	-3.682004660876699	-0.3067136548665472	11.40874117793864	7.322407816891035	-4.343920357831316	0	0
62.91666666666666	0	0	0	0	0.93	0	0	0	0	0	0	0	0	0	0	0	0	0	0	0	0	0	0	0	0	3.354306674449587	0.2789334019532494	-0.06646231867012667	110.1799631697915	102.9096352867637	0	0	-3.792847036607204	-0.07425634133522176	11.44921503600676	7.458157590619108	-5.194450286696014	0	0
62.93333333333333	-3.621162261237296e-28	-8.041973408776074e-26	4.024230604388179e-27	4.338950249535099e-27	0.93	3.733954577949707e-27	8.620910738379216e-35	1.433226410255545e-33	-9.639042303443612e-24	0	-1.084052677740812e-16	-2.66840926522069e-20	-4.794935172765481e-20	2.819739631739381e-19	4.653987958391247e-25	4.527800686622602e-14	3.899374310686622e-15	0	-1.084061026211259e-16	4.446254507628416e-19	-1.011690340798547e-21	-1.669869092826137e-21	-3.266799389243229e-15	3.239060467010303e-16	2.093705569450973e-15	3.3766875530617	0.3430552846200876	-0.01585830874480807	110.17095799462	102.8751561212559	-2.543544013171736e-22	-4.13328398328008e-21	-3.901179240566386	0.1536705775410804	11.44627986102373	8.009560795080104	-5.859284171752992	-2.658292907244402e-22	7.277452837133125e-27
62.95	-4.645620802867316e-26	-7.373593382877564e-21	-1.30361716401337e-26	-1.034264274212429e-21	0.93	1.936851199500835e-20	-4.997812614298907e-34	1.724182147675843e-34	-3.088323820736455e-26	0	-1.347965834667226e-16	-1.834310615201421e-20	-6.562730161609078e-20	6.475007017316052e-19	-1.132866591030203e-14	4.960195096539517e-16	3.856470909014563e-15	0	-1.347965843579449e-16	3.723201197118412e-19	8.247345629211705e-21	1.024823967717921e-20	-5.210323061339237e-15	1.872947916110625e-14	-2.362207777154856e-15	3.251948426013582	0.3276330629186796	-0.02313645332378506	110.3483513798679	102.6957336143336	2.032913853922703e-18	-7.010942432054605e-18	-3.945619753784956	0.2566981691356026	11.42743018113537	8.611947800172198	-5.436070677098871	1.654349522571949e-20	-1.140694813211301e-18
62.96666666666667	0	0	0	0	0.93	0	0	0	0	3.570806538705475e-39	1.750827639969757e-41	0	0	0	0	0	0	3.570806538705475e-39	1.750827639969757e-41	0	0	0	0	0	0	3.03832193661903	0.2066640502743492	-0.1225061480326233	110.602141160473	102.5232165379956	0	0	-3.947766925871952	0.3125282572692082	11.40551681548061	8.95317868272619	-5.277238877163825	0	0
62.98333333333333	-1.512697495166065e-26	2.758018582066316e-18	1.217477829970639e-26	6.532997499725385e-22	0.93	3.500587792171992e-21	-2.155227684594804e-35	-3.222237806683999e-30	-4.540124967048586e-21	0	-1.739385478814939e-16	4.853466392635247e-23	2.276455520433688e-22	3.85032735191819e-20	1.687275120162505e-20	-3.101698413692223e-32	1.624727905034426e-22	0	-1.73899769220055e-16	-6.824619486293387e-25	-9.174454140893173e-26	-1.318352297042255e-20	1.203252192255533e-27	6.227297610269788e-22	-3.009858207106929e-24	2.805888477232804	0.2461159895931477	0.08389812696732617	110.7899806513331	102.6088806842696	5.841719123197931e-20	1.82634804010578e-19	-3.944502598053532	0.3239406670957127	11.37067865524516	9.564054921540512	-5.435932514682658	5.731785819823267e-20	1.614666574415797e-21
63	0	0	0	0	0.93	0	0	0	0	8.89307406755011e-39	0	0	0	0	0	0	0	9.721394338938839e-38	0	0	0	0	0	0	0	2.586110197094555	0.347873630229438	0.2605905056175837	110.9404624569625	102.6790670624299	0	0	-3.875411715509672	0.1574292969772736	11.2784766943749	10.67432944709801	-5.149459666862361	0	0
63.01666666666667	0	0	0	0	0.93	0	0	0	0	0	0	0	0	0	0	0	0	0	0	0	0	0	0	0	0	2.223372634193283	0.6776759480976282	0.5214831762292985	111.1172617257557	102.9578287625761	0	0	-3.789792413961736	-0.04217776902761498	11.2108989178084	11.38419841829354	-4.874816712245122	0	0
63.03333333333333	0	0	0	0	0.93	0	0	0	0	0	0	0	0	0	0	0	0	0	0	0	0	0	0	0	0	1.978079909575257	1.082615009040558	0.842472294459123	111.2215919365656	103.4632134190105	0	0	-3.713673505923786	-0.1926257661162446	11.14827857729531	11.64436341391077	-4.891105140627601	0	0
63.05	-3.6050354806215e-12	-2.548285715886424e-12	-8.36813811576522e-13	1.771117608159894e-29	0.93	3.414861198676169e-27	-1.514842998477887e-28	-4.11956875924841e-25	0	2.997807557728934e-07	5.232161252998009e-09	8.727241845522626e-20	1.260974091511322e-23	9.359654471044241e-24	5.384361100530457e-24	1.425044668835337e-28	-4.564849709406876e-23	2.997807557707556e-07	5.232148058367915e-09	-5.506708717099904e-24	6.141737584770595e-28	2.004551361742742e-23	-3.605035480590889e-12	-2.548285716223709e-12	-8.368138115767034e-13	1.513813597310928	1.492680261027907	1.325087919951525	111.531190300864	104.0441043607445	-1.362791668396646e-25	-2.33249342753929e-23	-3.656688018237334	-0.3179430527470061	11.10462444326372	11.75673465128366	-4.759878638365813	-6.15104725838873e-26	1.570654641636239e-23
63.06666666666666	0	0	0	0	0.93	0	0	0	0	0	0	0	0	0	0	0	0	0	0	0	0	0	0	0	0	1.141755244802206	1.700383187019801	1.815960262090873	111.8589504291967	104.3595335433911	0	0	-3.533191288159096	-0.5810801501805238	11.02906522907534	12.09685390462964	-3.852937967802691	0	0
63.08333333333334	0	0	0	0	0.93	0	0	0	0	0	0	0	0	0	0	0	0	0	0	0	0	0	0	0	0	0.5427366755351469	1.773015427548781	2.926688933611678	112.4151932109407	104.9488630434886	0	0	-3.439148253015657	-0.7825821788009217	11.00034813102696	12.3268945456098	-3.485403120675039	0	0
63.1	0	0	0	0	0.93	0	0	0	0	0	0	0	0	0	0	0	0	0	0	0	0	0	0	0	0	-0.6602288155063406	1.487290950357675	3.245119097173395	113.7072188753951	105.1659464883669	0	0	-3.41155327039216	-0.8583097355136713	10.98034439301775	12.34849767273611	-3.576059377835497	0	0
63.11666666666667	3.040070076174608e-23	-4.985478554384371e-22	2.72657710314646e-22	3.541629695024593e-24	0.93	-3.785429484423481e-24	-4.900485764714756e-15	3.663003531780627e-16	1.034025368202798e-15	2.517731600504855e-05	4.394270602281684e-07	1.790904721345518e-08	-9.677248334071102e-09	-3.315640317434379e-10	-9.209373525167662e-15	4.068794658387453e-15	5.571411838183523e-15	2.517209608777156e-05	4.39335960523858e-07	-3.075289048433532e-09	1.326846461465641e-08	1.921102254760433e-12	3.542594177084636e-14	-2.995050668779129e-14	2.891194610837905e-14	-1.819459763171086	-0.4379925050884955	0.8542759245800237	115.321910504616	102.8156999425169	6.634667132783477e-13	-7.880598865630237e-14	-3.357111905318804	-0.9914429748081832	10.94465764932869	12.34268171759179	-3.858257613167357	2.719213455480941e-14	5.784335881735458e-15
